<svg width="74" height="73" viewBox="0 0 74 73" fill="none" xmlns="http://www.w3.org/2000/svg">
<path fill-rule="evenodd" clip-rule="evenodd" d="M53.9407 60.9951C51.7869 63.1117 49.2612 64.7632 46.3635 65.9684C43.4658 67.1625 40.3189 67.7614 36.9227 67.7614C33.5266 67.7614 30.3759 67.1625 27.4856 65.9684C24.5842 64.7632 22.0585 63.1117 19.9047 60.9951C17.751 58.886 16.0585 56.3937 14.8421 53.5146C13.6629 50.736 13.0603 47.7341 13.0157 44.5128H18.7442C18.8037 45.5022 19.0157 46.4322 19.3877 47.3026C19.8303 48.3516 20.4441 49.2555 21.2253 50.018C22.0064 50.788 22.9289 51.3869 23.9779 51.8184C25.0306 52.2573 26.1726 52.4768 27.4075 52.4768C28.6425 52.4768 29.777 52.2573 30.8334 51.8184C31.8861 51.3906 32.8049 50.788 33.5861 50.018C34.3672 49.2518 34.9847 48.3479 35.4236 47.3026C35.7212 46.6144 35.9109 45.8816 36.0076 45.1191H37.8452C37.9419 45.8854 38.1354 46.6144 38.4292 47.3026C38.8756 48.3516 39.4819 49.2555 40.2668 50.018C41.0442 50.788 41.9667 51.3869 43.0157 51.8184C44.0684 52.2573 45.2104 52.4768 46.4416 52.4768C47.6729 52.4768 48.8186 52.2573 49.8713 51.8184C50.924 51.3906 51.8427 50.788 52.6239 50.018C53.405 49.2518 54.0225 48.3479 54.4615 47.3026C54.8297 46.4322 55.0417 45.5022 55.105 44.5128H60.8223C60.7888 47.7341 60.1788 50.7397 59.0033 53.5146C57.7832 56.39 56.0944 58.886 53.937 60.9951M32.5631 43.9102C32.5631 44.6355 32.4292 45.3088 32.1688 45.93C31.9047 46.5438 31.5439 47.0794 31.0752 47.5407C30.6065 47.9982 30.0634 48.3553 29.4422 48.612C28.8136 48.8724 28.1403 49.0025 27.4075 49.0025C26.6747 49.0025 25.994 48.8724 25.3691 48.612C24.7479 48.3553 24.2011 47.9982 23.7361 47.5407C23.2674 47.0831 22.9029 46.5475 22.6462 45.93C22.3821 45.3088 22.2519 44.6355 22.2519 43.9102C22.2519 43.1848 22.3858 42.5152 22.6462 41.894C22.9066 41.2766 23.2674 40.7409 23.7361 40.2797C24.2011 39.8258 24.7479 39.4688 25.3691 39.2121C25.994 38.9517 26.671 38.8215 27.4075 38.8215C28.144 38.8215 28.8136 38.9517 29.4422 39.2121C30.0634 39.4688 30.6065 39.8258 31.0752 40.2797C31.5439 40.7372 31.9085 41.2728 32.1688 41.894C32.4292 42.5152 32.5631 43.1922 32.5631 43.9102ZM51.601 43.9102C51.601 44.6355 51.4708 45.3088 51.2067 45.93C50.9463 46.5438 50.5817 47.0794 50.1205 47.5407C49.6555 47.9982 49.105 48.3553 48.4801 48.612C47.8589 48.8724 47.1781 49.0025 46.4453 49.0025C45.7125 49.0025 45.0355 48.8724 44.4143 48.612C43.7857 48.3553 43.2389 47.9982 42.7776 47.5407C42.3127 47.0831 41.9481 46.5475 41.684 45.93C41.4199 45.3088 41.2897 44.6355 41.2897 43.9102C41.2897 43.1848 41.4199 42.5152 41.684 41.894C41.9519 41.2766 42.3127 40.7409 42.7776 40.2797C43.2389 39.8258 43.7857 39.4688 44.4143 39.2121C45.0355 38.9517 45.7163 38.8215 46.4453 38.8215C47.1744 38.8215 47.8589 38.9517 48.4801 39.2121C49.105 39.4688 49.6555 39.8258 50.1205 40.2797C50.5817 40.7372 50.95 41.2728 51.2067 41.894C51.4745 42.5152 51.601 43.1922 51.601 43.9102ZM15.1434 34.2015C19.2091 32.8624 24.6065 31.1513 24.6065 31.1513C36.4726 27.3758 38.061 22.912 38.061 22.912C38.061 22.912 40.5569 27.3758 49.1719 30.3181C49.1719 30.3181 53.9295 31.8841 58.3561 33.4836C58.5793 33.9226 58.8099 34.3615 59.0033 34.8265C59.7807 36.664 60.3089 38.5983 60.5879 40.6219H54.4987L54.4577 40.514C54.0151 39.465 53.4013 38.5648 52.6202 37.7986C51.839 37.0286 50.9165 36.4297 49.8675 35.9945C48.8148 35.563 47.6766 35.3472 46.4379 35.3472C45.1992 35.3472 44.0647 35.563 43.012 35.9945C41.9593 36.4297 41.0405 37.0323 40.2631 37.7986C39.4782 38.5686 38.8682 39.4688 38.4255 40.514C38.2841 40.8451 38.1688 41.1798 38.0721 41.5221H35.7696C35.6766 41.1798 35.5613 40.8451 35.4162 40.514C34.9773 39.465 34.3635 38.5648 33.5786 37.7986C32.7975 37.0286 31.875 36.4297 30.826 35.9945C29.7733 35.563 28.635 35.3472 27.4001 35.3472C26.1651 35.3472 25.0231 35.563 23.9704 35.9945C22.9178 36.4297 21.999 37.0323 21.2178 37.7986C20.4404 38.5686 19.8229 39.4688 19.3802 40.514C19.3654 40.5475 19.3542 40.5847 19.3356 40.6219H13.25C13.529 38.5983 14.0535 36.6603 14.8347 34.8265C14.9277 34.6107 15.0393 34.4099 15.136 34.1978M70.6313 22.5772C68.764 18.1916 66.1936 14.3863 62.8979 11.165C59.6096 7.9362 55.7559 5.41047 51.3331 3.58406C46.9103 1.75393 42.1081 0.838867 36.9227 0.838867C31.7373 0.838867 26.9351 1.75393 22.5123 3.58406C18.0932 5.41047 14.2358 7.93248 10.9438 11.165C7.65551 14.3863 5.0777 18.1916 3.21781 22.5772C1.3542 26.9666 0.427979 31.7242 0.427979 36.8389C0.427979 41.9536 1.3542 46.7112 3.22153 51.1005C5.08142 55.4898 7.65923 59.2914 10.9475 62.5165C14.2358 65.7415 18.0932 68.2673 22.516 70.0974C26.9388 71.9238 31.7411 72.8389 36.9264 72.8389C42.1118 72.8389 46.914 71.9238 51.3368 70.0974C55.7559 68.2673 59.6096 65.7453 62.9016 62.5165C66.1974 59.2914 68.7677 55.4898 70.6351 51.1005C72.4912 46.7112 73.4212 41.961 73.4212 36.8389C73.4212 31.7167 72.4912 26.9666 70.6351 22.5772" fill="#EE6513"/>
</svg>
