<svg width="186" height="36" viewBox="0 0 186 36" fill="none" xmlns="http://www.w3.org/2000/svg">
<g clip-path="url(#clip0_99_10)">
<path fill-rule="evenodd" clip-rule="evenodd" d="M37.2202 13.9527C37.2202 13.0912 37.4656 12.4717 37.9547 12.089C38.4455 11.7046 39.1371 11.5159 40.0277 11.5159C40.5786 11.5159 41.0848 11.5828 41.5447 11.7218C42.0029 11.8608 42.3101 11.9603 42.4645 12.0204V24.1186C42.4645 26.2054 42.9519 27.7944 43.9352 28.8807C44.9168 29.9687 46.4183 30.5144 48.445 30.5144C50.4717 30.5144 51.9715 29.9687 52.9531 28.8807C53.9347 27.7944 54.4255 26.2054 54.4255 24.1186V13.9544C54.4255 13.0929 54.6691 12.4734 55.1599 12.0908C55.6507 11.7081 56.3251 11.5176 57.1832 11.5176C57.7684 11.5176 58.2883 11.5845 58.7465 11.7235C59.2081 11.8625 59.5153 11.962 59.6663 12.0221V25.2701C59.6663 26.8351 59.3986 28.2372 58.8632 29.4796C58.3244 30.722 57.5607 31.7723 56.5637 32.6303C55.5684 33.49 54.3791 34.1421 52.9977 34.5866C51.618 35.0293 50.0993 35.2541 48.4433 35.2541C46.7873 35.2541 45.2686 35.0293 43.8888 34.5866C42.5057 34.1421 41.3268 33.49 40.3452 32.6303C39.3636 31.7723 38.5982 30.7237 38.0457 29.4796C37.4948 28.2372 37.2168 26.8351 37.2168 25.2701V13.9544L37.2202 13.9527Z" fill="white"/>
<path fill-rule="evenodd" clip-rule="evenodd" d="M63.8113 7.41972C63.8113 6.55825 64.055 5.94047 64.5475 5.55607C65.0366 5.17168 65.7127 4.98291 66.5707 4.98291C67.1216 4.98291 67.6347 5.04984 68.1117 5.19055C68.5871 5.32784 68.9011 5.42909 69.0556 5.48743V11.5142H75.7259C76.7384 11.5142 77.4505 11.7219 77.8641 12.1337C78.2777 12.549 78.4819 13.1531 78.4819 13.951C78.4819 14.4744 78.4081 14.9549 78.2554 15.3994C78.1009 15.8439 77.9774 16.1596 77.8864 16.3432H69.0539V26.6036C69.0539 27.3998 69.1603 28.0519 69.3765 28.5564C69.591 29.0627 69.8896 29.4694 70.2723 29.7748C70.6567 30.0837 71.1011 30.2982 71.6074 30.4218C72.1119 30.5436 72.6421 30.6037 73.193 30.6037C74.0836 30.6037 74.9125 30.4664 75.6779 30.1901C76.4432 29.9138 76.9992 29.653 77.3356 29.4093L79.4515 32.9049C79.2061 33.0886 78.8629 33.3202 78.4167 33.5948C77.9705 33.8711 77.4265 34.1319 76.783 34.3756C76.1378 34.6227 75.417 34.8287 74.6208 34.9985C73.8228 35.165 72.9493 35.2508 72.0003 35.2508C69.2993 35.2508 67.2606 34.5541 65.8809 33.1572C64.4977 31.7655 63.8096 29.9327 63.8096 27.6607V7.41972H63.8113Z" fill="white"/>
<path fill-rule="evenodd" clip-rule="evenodd" d="M93.9424 30.5145C94.9841 30.5145 95.9434 30.3223 96.8168 29.9397C97.6903 29.5553 98.442 29.0353 99.07 28.3746C99.6998 27.7156 100.182 26.9331 100.52 26.027C100.856 25.1244 101.025 24.1377 101.025 23.0617C101.025 21.9857 100.856 20.9904 100.52 20.0706C100.182 19.1508 99.6998 18.3631 99.07 17.7024C98.4402 17.0435 97.6886 16.5218 96.8168 16.1391C95.9417 15.7547 94.9841 15.5625 93.9424 15.5625C92.9008 15.5625 91.8952 15.7564 91.0217 16.1391C90.1482 16.5218 89.4035 17.052 88.7908 17.7247C88.1748 18.4009 87.696 19.1988 87.3408 20.1186C86.989 21.0385 86.8122 22.0218 86.8122 23.0634C86.8122 24.1668 86.989 25.1793 87.3408 26.0974C87.696 27.0189 88.1833 27.7997 88.8131 28.4433C89.4412 29.0885 90.1928 29.5947 91.068 29.962C91.9398 30.3309 92.8991 30.5163 93.9424 30.5163V30.5145ZM81.6143 3.14165C81.6143 2.31451 81.8579 1.70016 82.3487 1.30203C82.8378 0.903904 83.5294 0.703125 84.4183 0.703125C84.9709 0.703125 85.4771 0.771767 85.9353 0.910768C86.3952 1.04977 86.7007 1.1493 86.8568 1.20936V14.411C87.6222 13.4294 88.681 12.5937 90.0298 11.9039C91.3804 11.214 92.9283 10.8674 94.6752 10.8674C96.4222 10.8674 97.9203 11.1677 99.3463 11.7666C100.772 12.3655 102.017 13.2081 103.072 14.296C104.132 15.3857 104.961 16.6728 105.557 18.1589C106.157 19.6467 106.454 21.2804 106.454 23.06C106.454 24.8395 106.147 26.4355 105.534 27.9353C104.92 29.4386 104.06 30.7273 102.96 31.7999C101.853 32.8741 100.542 33.7184 99.0254 34.3293C97.5067 34.9437 95.8438 35.2492 94.0351 35.2492C92.2264 35.2492 90.5618 34.9746 89.0448 34.422C87.5244 33.8694 86.2167 33.0406 85.1116 31.9389C84.0064 30.8337 83.1484 29.4557 82.5358 27.798C81.9214 26.1403 81.616 24.196 81.616 21.9565V3.14165H81.6143Z" fill="white"/>
<path fill-rule="evenodd" clip-rule="evenodd" d="M109.536 19.7478C109.536 16.9266 110.401 14.742 112.136 13.1942C113.867 11.6446 116.27 10.8689 119.335 10.8689C121.269 10.8689 122.839 11.1383 124.05 11.672C125.262 12.2109 125.868 13.0294 125.868 14.1363C125.868 14.658 125.722 15.1625 125.43 15.6516C125.137 16.1424 124.902 16.4495 124.718 16.5714C124.194 16.326 123.553 16.096 122.784 15.8815C122.017 15.6687 121.14 15.5589 120.16 15.5589C116.575 15.5589 114.78 17.462 114.78 21.2631V34.6055H109.534V19.7461L109.536 19.7478Z" fill="white"/>
<path fill-rule="evenodd" clip-rule="evenodd" d="M143.348 24.3022C143.043 24.2405 142.468 24.1495 141.623 24.0259C140.777 23.9041 139.516 23.8423 137.828 23.8423C135.741 23.8423 134.226 24.1564 133.273 24.7862C132.322 25.416 131.847 26.4044 131.847 27.7532C131.847 28.3058 131.945 28.8103 132.146 29.2719C132.345 29.7319 132.69 30.1214 133.18 30.4457C133.671 30.7666 134.339 31.0137 135.183 31.1802C136.027 31.3484 137.078 31.4342 138.335 31.4342C139.744 31.4342 140.863 31.381 141.692 31.2712C142.519 31.1665 143.074 31.0807 143.348 31.0189V24.3022ZM148.544 34.5162C148.239 34.5763 147.757 34.6449 147.098 34.7239C146.439 34.7994 145.663 34.8766 144.774 34.9521C143.884 35.0293 142.886 35.098 141.783 35.1615C140.681 35.2198 139.532 35.2541 138.335 35.2541C135.942 35.2541 133.987 35.0448 132.468 34.6312C130.951 34.2176 129.753 33.6668 128.882 32.9752C128.008 32.2853 127.409 31.4891 127.087 30.5813C126.764 29.6787 126.604 28.7503 126.604 27.7978C126.604 26.5417 126.797 25.4383 127.179 24.4876C127.562 23.5386 128.19 22.7389 129.064 22.0971C129.939 21.4519 131.082 20.9696 132.491 20.6453C133.903 20.3227 135.621 20.1614 137.644 20.1614C138.807 20.1614 139.913 20.2008 140.954 20.2781C141.998 20.3553 142.78 20.4239 143.302 20.4857C143.302 19.4115 143.123 18.5225 142.773 17.8172C142.42 17.1119 141.937 16.5594 141.325 16.1612C140.709 15.7631 139.973 15.4868 139.116 15.3324C138.257 15.1796 137.306 15.1024 136.264 15.1024C134.517 15.1024 133.114 15.3015 132.055 15.7013C130.998 16.0995 130.301 16.4358 129.961 16.7138C129.777 16.5594 129.524 16.2693 129.201 15.8369C128.88 15.4096 128.719 14.8879 128.719 14.2736C128.719 13.8463 128.834 13.4224 129.062 13.0071C129.294 12.5935 129.699 12.2263 130.282 11.9037C130.865 11.5811 131.648 11.3305 132.628 11.1435C133.609 10.9599 134.852 10.8672 136.352 10.8672C138.164 10.8672 139.811 11.0457 141.299 11.3957C142.789 11.7492 144.067 12.3087 145.14 13.0758C146.214 13.8428 147.048 14.8553 147.647 16.1115C148.246 17.3676 148.543 18.8863 148.543 20.6659V34.5128L148.544 34.5162Z" fill="white"/>
<path fill-rule="evenodd" clip-rule="evenodd" d="M153.236 13.9529C153.236 13.0914 153.484 12.4719 153.973 12.0893C154.463 11.7049 155.153 11.5161 156.044 11.5161C156.595 11.5161 157.103 11.583 157.561 11.722C158.019 11.861 158.326 11.9606 158.481 12.0206V34.6074H153.235V13.9529H153.236ZM155.86 1.16138C156.751 1.16138 157.501 1.46855 158.113 2.0829C158.726 2.69725 159.033 3.44717 159.033 4.33437C159.033 5.22158 158.726 5.97665 158.113 6.58756C157.499 7.20363 156.749 7.50909 155.86 7.50909C154.971 7.50909 154.22 7.20363 153.605 6.58756C152.993 5.97493 152.686 5.22501 152.686 4.33437C152.686 3.44374 152.993 2.69554 153.605 2.0829C154.221 1.46684 154.973 1.16138 155.86 1.16138Z" fill="white"/>
<path fill-rule="evenodd" clip-rule="evenodd" d="M163.176 20.6693C163.176 19.1369 163.459 17.764 164.025 16.5508C164.592 15.3392 165.376 14.313 166.371 13.4704C167.368 12.6261 168.55 11.9843 169.915 11.5382C171.277 11.0937 172.774 10.8689 174.397 10.8689C176.021 10.8689 177.527 11.0937 178.909 11.5382C180.288 11.9826 181.478 12.6261 182.473 13.4704C183.468 14.313 184.246 15.3392 184.798 16.5508C185.349 17.7623 185.627 19.1369 185.627 20.6693V34.6089H180.383V22.0027C180.383 19.9194 179.875 18.3303 178.866 17.2441C177.852 16.1544 176.364 15.6087 174.399 15.6087C172.434 15.6087 170.913 16.1544 169.916 17.2441C168.919 18.332 168.42 19.9194 168.42 22.0027V34.6089H163.176V20.6693Z" fill="white"/>
<path fill-rule="evenodd" clip-rule="evenodd" d="M25.3826 29.9724C24.389 30.9488 23.2238 31.7107 21.887 32.2667C20.5501 32.8176 19.0984 33.0939 17.5316 33.0939C15.9648 33.0939 14.5113 32.8176 13.1779 32.2667C11.8394 31.7107 10.6742 30.9488 9.68061 29.9724C8.68701 28.9994 7.9062 27.8496 7.34505 26.5214C6.80106 25.2395 6.52306 23.8546 6.50246 22.3685H9.1452C9.17266 22.825 9.27047 23.254 9.44208 23.6555C9.64629 24.1395 9.92944 24.5565 10.2898 24.9083C10.6502 25.2635 11.0758 25.5398 11.5597 25.7388C12.0453 25.9413 12.5722 26.0426 13.1419 26.0426C13.7116 26.0426 14.235 25.9413 14.7224 25.7388C15.208 25.5415 15.6319 25.2635 15.9923 24.9083C16.3527 24.5548 16.6375 24.1378 16.84 23.6555C16.9773 23.3381 17.0648 23 17.1094 22.6482H17.9572C18.0018 23.0017 18.091 23.3381 18.2266 23.6555C18.4325 24.1395 18.7122 24.5565 19.0743 24.9083C19.433 25.2635 19.8586 25.5398 20.3425 25.7388C20.8281 25.9413 21.355 26.0426 21.923 26.0426C22.491 26.0426 23.0196 25.9413 23.5052 25.7388C23.9908 25.5415 24.4147 25.2635 24.7751 24.9083C25.1355 24.5548 25.4203 24.1378 25.6228 23.6555C25.7927 23.254 25.8905 22.825 25.9197 22.3685H28.5573C28.5418 23.8546 28.2604 25.2412 27.7181 26.5214C27.1553 27.8479 26.3762 28.9994 25.3809 29.9724M15.5204 22.0905C15.5204 22.4251 15.4586 22.7357 15.3385 23.0223C15.2166 23.3055 15.0502 23.5526 14.8339 23.7654C14.6177 23.9764 14.3672 24.1412 14.0806 24.2596C13.7906 24.3797 13.48 24.4398 13.1419 24.4398C12.8038 24.4398 12.4898 24.3797 12.2015 24.2596C11.9149 24.1412 11.6627 23.9764 11.4482 23.7654C11.2319 23.5543 11.0638 23.3072 10.9453 23.0223C10.8235 22.7357 10.7634 22.4251 10.7634 22.0905C10.7634 21.7559 10.8252 21.447 10.9453 21.1604C11.0655 20.8755 11.2319 20.6284 11.4482 20.4156C11.6627 20.2063 11.9149 20.0415 12.2015 19.9231C12.4898 19.803 12.8021 19.7429 13.1419 19.7429C13.4817 19.7429 13.7906 19.803 14.0806 19.9231C14.3672 20.0415 14.6177 20.2063 14.8339 20.4156C15.0502 20.6267 15.2183 20.8738 15.3385 21.1604C15.4586 21.447 15.5204 21.7593 15.5204 22.0905ZM24.3032 22.0905C24.3032 22.4251 24.2431 22.7357 24.1213 23.0223C24.0011 23.3055 23.833 23.5526 23.6202 23.7654C23.4057 23.9764 23.1517 24.1412 22.8634 24.2596C22.5768 24.3797 22.2628 24.4398 21.9247 24.4398C21.5866 24.4398 21.2743 24.3797 20.9877 24.2596C20.6977 24.1412 20.4455 23.9764 20.2327 23.7654C20.0182 23.5543 19.85 23.3072 19.7281 23.0223C19.6063 22.7357 19.5462 22.4251 19.5462 22.0905C19.5462 21.7559 19.6063 21.447 19.7281 21.1604C19.8517 20.8755 20.0182 20.6284 20.2327 20.4156C20.4455 20.2063 20.6977 20.0415 20.9877 19.9231C21.2743 19.803 21.5884 19.7429 21.9247 19.7429C22.2611 19.7429 22.5768 19.803 22.8634 19.9231C23.1517 20.0415 23.4057 20.2063 23.6202 20.4156C23.833 20.6267 24.0029 20.8738 24.1213 21.1604C24.2448 21.447 24.3032 21.7593 24.3032 22.0905ZM7.48405 17.6116C9.35971 16.9938 11.8497 16.2044 11.8497 16.2044C17.3239 14.4626 18.0567 12.4033 18.0567 12.4033C18.0567 12.4033 19.2082 14.4626 23.1826 15.82C23.1826 15.82 25.3774 16.5425 27.4195 17.2804C27.5225 17.4829 27.6289 17.6854 27.7181 17.8999C28.0768 18.7476 28.3205 19.64 28.4492 20.5735H25.64L25.6211 20.5237C25.4169 20.0398 25.1337 19.6245 24.7734 19.271C24.413 18.9158 23.9874 18.6395 23.5035 18.4387C23.0178 18.2396 22.4927 18.1401 21.9213 18.1401C21.3498 18.1401 20.8264 18.2396 20.3408 18.4387C19.8551 18.6395 19.4313 18.9175 19.0726 19.271C18.7105 19.6262 18.4291 20.0415 18.2249 20.5237C18.1597 20.6765 18.1065 20.8309 18.0619 20.9888H16.9996C16.9567 20.8309 16.9035 20.6765 16.8366 20.5237C16.6341 20.0398 16.3509 19.6245 15.9889 19.271C15.6285 18.9158 15.2029 18.6395 14.719 18.4387C14.2333 18.2396 13.7082 18.1401 13.1385 18.1401C12.5687 18.1401 12.0419 18.2396 11.5563 18.4387C11.0706 18.6395 10.6468 18.9175 10.2864 19.271C9.92772 19.6262 9.64286 20.0415 9.43865 20.5237C9.43178 20.5392 9.42663 20.5563 9.41805 20.5735H6.61058C6.73928 19.64 6.98125 18.7459 7.34162 17.8999C7.38452 17.8003 7.436 17.7077 7.48062 17.6099M33.0825 12.2489C32.2211 10.2256 31.0353 8.47011 29.5148 6.984C27.9978 5.49446 26.22 4.32925 24.1796 3.48667C22.1392 2.64237 19.9238 2.22021 17.5316 2.22021C15.1394 2.22021 12.924 2.64237 10.8836 3.48667C8.84489 4.32925 7.06533 5.49274 5.54662 6.984C4.02962 8.47011 2.84039 10.2256 1.98236 12.2489C1.12261 14.2738 0.695312 16.4687 0.695312 18.8283C0.695312 21.1878 1.12261 23.3827 1.98407 25.4076C2.84211 27.4326 4.03134 29.1864 5.54833 30.6742C7.06533 32.1621 8.84489 33.3273 10.8853 34.1716C12.9257 35.0141 15.1411 35.4363 17.5333 35.4363C19.9255 35.4363 22.1409 35.0141 24.1813 34.1716C26.22 33.3273 27.9978 32.1638 29.5166 30.6742C31.037 29.1864 32.2228 27.4326 33.0843 25.4076C33.9406 23.3827 34.3696 21.1913 34.3696 18.8283C34.3696 16.4652 33.9406 14.2738 33.0843 12.2489" fill="white"/>
</g>
<defs>
<clipPath id="clip0_99_10">
<rect width="184.93" height="34.7331" fill="white" transform="translate(0.695312 0.703125)"/>
</clipPath>
</defs>
</svg>
